<?xml version="1.0" standalone="no"?>
<!DOCTYPE svg PUBLIC "-//W3C//DTD SVG 20010904//EN"
 "http://www.w3.org/TR/2001/REC-SVG-20010904/DTD/svg10.dtd">
<svg version="1.0" xmlns="http://www.w3.org/2000/svg"
 width="1024.000000pt" height="1024.000000pt" viewBox="0 0 1024.000000 1024.000000"
 preserveAspectRatio="xMidYMid meet">

<g transform="translate(0.000000,1024.000000) scale(0.100000,-0.100000)"
fill="#000000" stroke="none">
<path d="M4760 9419 c-99 -45 -145 -117 -145 -229 0 -115 52 -198 153 -246 51
-24 68 -27 156 -26 116 1 146 -8 146 -42 0 -90 170 -102 228 -16 35 51 28 135
-15 187 -65 81 -199 113 -329 79 -97 -25 -130 -22 -169 17 -41 41 -51 77 -36
128 26 88 116 147 207 136 29 -3 41 -1 33 4 -8 5 -34 9 -59 10 -34 0 -40 2
-25 9 14 6 3 9 -40 9 -40 0 -75 -6 -105 -20z"/>
<path d="M5023 8776 c-175 -57 -272 -215 -273 -443 l0 -83 -26 10 c-35 14 -77
13 -92 -2 -31 -31 6 -122 116 -292 67 -101 75 -135 70 -277 -3 -101 -7 -123
-32 -172 -62 -128 -199 -190 -518 -237 -302 -44 -413 -85 -524 -196 -72 -71
-115 -152 -145 -274 -19 -73 -21 -103 -16 -225 14 -367 164 -619 407 -681 76
-19 182 -13 288 16 37 10 68 17 70 15 5 -4 -157 -65 -174 -65 -8 0 -14 -2 -14
-5 0 -3 24 -54 54 -113 74 -148 123 -274 159 -411 29 -111 30 -126 31 -321 1
-224 -8 -287 -66 -470 -40 -126 -63 -179 -173 -405 -117 -241 -176 -389 -214
-537 -133 -515 20 -923 454 -1213 91 -61 285 -159 390 -198 175 -64 298 -105
281 -91 -11 8 -24 14 -29 14 -17 0 -271 123 -346 168 -156 93 -295 216 -372
329 -46 66 -106 201 -124 274 -21 92 -19 258 4 352 24 92 75 204 129 283 107
157 234 278 552 527 480 377 684 603 857 952 41 83 51 95 73 95 48 0 54 -12
43 -79 -5 -33 -6 -58 -1 -55 17 10 7 -13 -41 -99 -83 -147 -159 -245 -306
-392 -156 -157 -231 -219 -584 -485 -253 -190 -416 -336 -502 -449 -66 -87
-136 -231 -154 -317 -43 -203 8 -423 137 -595 99 -132 220 -224 483 -369 203
-111 303 -179 380 -257 110 -111 148 -216 126 -343 -18 -97 -67 -175 -195
-304 -120 -123 -188 -212 -211 -276 -19 -53 -19 -126 1 -165 8 -16 12 -21 9
-11 -3 10 2 44 10 74 22 74 83 137 270 277 218 163 299 253 352 394 34 89 30
218 -9 301 -69 150 -184 250 -467 406 -241 133 -301 173 -384 257 -179 179
-214 389 -100 597 76 140 155 221 468 480 490 405 668 654 799 1115 52 184 80
415 92 751 l7 184 -40 0 c-79 0 -414 72 -400 87 2 2 44 -7 93 -19 122 -31 426
-33 519 -4 278 86 413 286 455 676 19 171 -7 372 -61 469 -11 20 -18 28 -15
19 4 -13 0 -18 -13 -18 -11 0 -21 -5 -23 -12 -4 -11 -103 -15 -138 -5 -35 9
-49 20 -43 30 4 6 0 8 -10 4 -9 -3 -19 -2 -22 4 -4 5 -11 7 -16 4 -5 -4 -9 -1
-9 4 0 6 -9 11 -20 11 -18 0 -25 11 -21 33 1 5 -2 6 -7 3 -5 -3 -23 9 -39 27
-16 17 -48 49 -71 69 -23 21 -54 57 -69 80 -15 24 -34 47 -42 52 -11 7 -11 10
0 18 10 7 8 8 -8 5 -13 -3 -25 -2 -28 3 -2 4 -25 10 -51 14 -93 12 -261 59
-319 88 -77 38 -118 78 -147 142 -20 45 -23 67 -23 191 0 157 -5 141 93 300
66 108 102 182 102 213 0 40 -46 47 -125 16 -11 -4 -17 -4 -13 1 4 4 -18 27
-50 50 -61 45 -107 96 -138 155 -21 42 -32 206 -16 262 10 36 9 37 -26 55 -48
23 -218 29 -279 9z m-762 -1971 c42 -22 95 -71 119 -111 21 -33 24 -34 81 -34
51 0 278 -20 404 -35 22 -2 160 1 307 7 284 12 474 3 588 -27 30 -8 55 -15 56
-15 0 0 18 25 38 55 49 71 106 121 170 151 72 34 83 31 48 -13 -79 -101 -129
-216 -101 -234 8 -5 26 -9 40 -9 48 0 260 -83 247 -96 -3 -2 -23 2 -46 10 -48
17 -140 32 -130 21 4 -4 -4 -21 -17 -37 -14 -16 -25 -33 -25 -36 0 -9 -41 -29
-109 -53 -36 -12 -81 -19 -132 -19 -71 0 -96 5 -154 32 -27 12 -55 13 -85 3
-14 -4 -23 -5 -20 -2 8 8 140 59 230 88 142 47 4 30 -215 -25 -55 -14 -104
-26 -108 -26 -18 0 5 18 30 25 34 8 276 104 283 112 12 14 -247 -9 -355 -31
-97 -20 -311 -82 -393 -113 -10 -4 -13 -2 -8 5 5 8 -4 12 -28 12 -20 0 -36 5
-36 10 0 6 -7 10 -16 10 -18 0 -153 87 -171 110 -6 8 -9 19 -6 24 4 5 0 6 -7
1 -7 -4 -15 -3 -19 3 -3 6 -80 16 -173 23 -147 11 -180 11 -287 -4 -66 -10
-156 -28 -198 -42 -42 -13 -79 -22 -82 -20 -7 8 148 75 222 95 38 11 72 21 74
24 9 9 -41 91 -83 136 -24 26 -44 50 -44 52 0 9 79 -11 111 -27z"/>
<path d="M6098 7263 c7 -3 16 -2 19 1 4 3 -2 6 -13 5 -11 0 -14 -3 -6 -6z"/>
</g>
</svg>
